<svg xmlns="http://www.w3.org/2000/svg" width="256" height="256" viewBox="0 0 100 100"><rect width="100" height="100" rx="0" fill="#3779c7"></rect><path fill="#fff" d="M27.39 75.75L27.39 75.75Q22.89 75.75 19.34 73.44Q15.78 71.13 13.72 66.73Q11.66 62.33 11.66 56.04L11.66 56.04Q11.66 49.68 13.76 45.29Q15.86 40.90 19.44 38.65Q23.02 36.40 27.42 36.40L27.42 36.40Q30.77 36.40 32.94 37.53Q35.10 38.66 36.37 40.24Q37.63 41.82 38.33 43.21L38.33 43.21L38.70 43.21L38.70 24.17L47.73 24.17L47.73 75.08L38.88 75.08L38.88 69.07L38.33 69.07Q37.63 70.46 36.32 72.01Q35.00 73.57 32.84 74.66Q30.67 75.75 27.39 75.75ZM29.90 68.37L29.90 68.37Q32.76 68.37 34.77 66.82Q36.79 65.26 37.83 62.48Q38.88 59.69 38.88 55.99L38.88 55.99Q38.88 52.29 37.84 49.55Q36.81 46.82 34.81 45.30Q32.81 43.79 29.90 43.79L29.90 43.79Q26.89 43.79 24.88 45.35Q22.87 46.92 21.85 49.68Q20.83 52.44 20.83 55.99L20.83 55.99Q20.83 59.57 21.86 62.37Q22.89 65.16 24.92 66.77Q26.94 68.37 29.90 68.37ZM87.52 46.99L87.52 46.99L79.32 47.89Q78.97 46.64 78.11 45.55Q77.26 44.46 75.81 43.79Q74.37 43.11 72.29 43.11L72.29 43.11Q69.48 43.11 67.57 44.33Q65.67 45.55 65.70 47.49L65.70 47.49Q65.67 49.15 66.93 50.20Q68.18 51.24 71.09 51.91L71.09 51.91L77.60 53.31Q83.02 54.47 85.67 57.01Q88.32 59.55 88.34 63.65L88.34 63.65Q88.32 67.25 86.24 70.00Q84.17 72.75 80.49 74.29Q76.81 75.83 72.04 75.83L72.04 75.83Q65.03 75.83 60.75 72.88Q56.48 69.94 55.66 64.67L55.66 64.67L64.43 63.82Q65.03 66.41 66.97 67.72Q68.90 69.04 72.01 69.04L72.01 69.04Q75.22 69.04 77.17 67.72Q79.12 66.41 79.12 64.47L79.12 64.47Q79.12 62.83 77.87 61.76Q76.61 60.69 73.98 60.12L73.98 60.12L67.46 58.75Q61.97 57.61 59.33 54.88Q56.70 52.16 56.72 47.99L56.72 47.99Q56.70 44.46 58.65 41.86Q60.60 39.26 64.09 37.83Q67.59 36.40 72.16 36.40L72.16 36.40Q78.87 36.40 82.74 39.26Q86.60 42.12 87.52 46.99Z"></path></svg>